<mxfile host="app.diagrams.net" agent="Mozilla/5.0 (Windows NT 10.0; Win64; x64) AppleWebKit/537.36 (KHTML, like Gecko) Chrome/130.0.0.0 Safari/537.36" version="24.8.3">
  <diagram name="Страница — 1" id="gGMcaVFbIQ1Z7cdC57Me">
    <mxGraphModel dx="576" dy="305" grid="1" gridSize="10" guides="1" tooltips="1" connect="1" arrows="1" fold="1" page="0" pageScale="1" pageWidth="850" pageHeight="1100" math="0" shadow="0">
      <root>
        <mxCell id="0" />
        <mxCell id="1" parent="0" />
        <mxCell id="vJl4w6SuXQ1yaVWuZdyr-1" value="" style="rounded=0;whiteSpace=wrap;html=1;dashed=1;dashPattern=8 8;" vertex="1" parent="1">
          <mxGeometry x="80" y="40" width="580" height="300" as="geometry" />
        </mxCell>
        <mxCell id="vJl4w6SuXQ1yaVWuZdyr-2" value="А0" style="text;html=1;align=center;verticalAlign=middle;whiteSpace=wrap;rounded=0;" vertex="1" parent="1">
          <mxGeometry x="90" y="300" width="60" height="30" as="geometry" />
        </mxCell>
        <mxCell id="vJl4w6SuXQ1yaVWuZdyr-3" value="&lt;span style=&quot;font-family: Arial; text-align: left; white-space-collapse: preserve;&quot;&gt;АС учета вкладов в Сбербанке&lt;/span&gt;" style="rounded=0;whiteSpace=wrap;html=1;" vertex="1" parent="1">
          <mxGeometry x="260" y="145" width="220" height="90" as="geometry" />
        </mxCell>
        <mxCell id="vJl4w6SuXQ1yaVWuZdyr-7" value="" style="endArrow=classic;html=1;rounded=0;" edge="1" parent="1">
          <mxGeometry width="50" height="50" relative="1" as="geometry">
            <mxPoint x="440" y="55" as="sourcePoint" />
            <mxPoint x="440" y="145" as="targetPoint" />
          </mxGeometry>
        </mxCell>
        <mxCell id="vJl4w6SuXQ1yaVWuZdyr-8" value="Законодательство" style="edgeLabel;html=1;align=center;verticalAlign=middle;resizable=0;points=[];" vertex="1" connectable="0" parent="vJl4w6SuXQ1yaVWuZdyr-7">
          <mxGeometry x="0.0568" y="-1" relative="1" as="geometry">
            <mxPoint x="51" y="-23" as="offset" />
          </mxGeometry>
        </mxCell>
      </root>
    </mxGraphModel>
  </diagram>
</mxfile>
